<svg xmlns="http://www.w3.org/2000/svg" width="48" height="48" viewBox="0 0 48 48">
    <g fill="none" transform="translate(1 3)">
        <path fill="#444" d="M44 42H2c-1.105 0-2-.895-2-2V2C0 .895.895 0 2 0h42c1.105 0 2 .895 2 2v38c0 1.105-.895 2-2 2z"/>
        <path fill="#FFF" d="M2 7H44V40H2z"/>
        <circle cx="3.5" cy="3.5" r="1.5" fill="#E86C60"/>
        <circle cx="8.5" cy="3.5" r="1.5" fill="#EFD358"/>
        <circle cx="13.5" cy="3.5" r="1.5" fill="#72C472"/>
        <path fill="#43A6DD" d="M19 25H7c-.552 0-1-.447-1-1V12c0-.553.448-1 1-1h12c.552 0 1 .447 1 1v12c0 .553-.448 1-1 1z"/>
        <path fill="#B3B3B3" d="M39 13H25c-.552 0-1-.447-1-1 0-.553.448-1 1-1h14c.552 0 1 .447 1 1 0 .553-.448 1-1 1zM39 19H25c-.552 0-1-.447-1-1 0-.553.448-1 1-1h14c.552 0 1 .447 1 1 0 .553-.448 1-1 1zM39 30H7c-.552 0-1-.447-1-1 0-.553.448-1 1-1h32c.552 0 1 .447 1 1 0 .553-.448 1-1 1zM31 36H7c-.552 0-1-.447-1-1 0-.553.448-1 1-1h24c.552 0 1 .447 1 1 0 .553-.448 1-1 1zM34 25h-9c-.552 0-1-.447-1-1 0-.553.448-1 1-1h9c.552 0 1 .447 1 1 0 .553-.448 1-1 1z"/>
    </g>
</svg>
