<svg xmlns="http://www.w3.org/2000/svg" width="48" height="48" viewBox="0 0 48 48">
    <g fill="none" transform="translate(1 1)">
        <path fill="#D39B75" d="M41 30.112c-.552 0-1-.447-1-1 0-.552.448-1 1-1 1.369 0 3-.52 3-3 0-1.637-1.018-1.973-1.222-2.025-.528-.13-.864-.664-.743-1.195.121-.532.633-.873 1.17-.758.966.201 2.795 1.292 2.795 3.978 0 3.037-1.962 5-5 5z"/>
        <path fill="#EEBC99" d="M29 16H17.641c-2.36-4.749-6.848-4.682-8.97-3.944-.517.18-.793.74-.62 1.26l1.656 4.968C7.612 19.711 5.976 21.704 5.012 24H1c-.552 0-1 .447-1 1v10c0 .553.448 1 1 1h5.087c1.438 2.236 3.505 3.979 5.913 4.988V45c0 .553.448 1 1 1h6c.552 0 1-.447 1-1v-3h6v3c0 .553.448 1 1 1h6c.552 0 1-.447 1-1v-4.012C38.813 38.98 42 34.25 42 29c0-7.168-5.832-13-13-13z"/>
        <path fill="#D39B75" d="M29 22h-8c-.552 0-1-.447-1-1 0-.553.448-1 1-1h8c.552 0 1 .447 1 1 0 .553-.448 1-1 1z"/>
        <circle cx="25" cy="5" r="5" fill="#EFD358"/>
        <path fill="#444" d="M13 27c-1.103 0-2-.897-2-2s.897-2 2-2 2 .897 2 2-.897 2-2 2z"/>
    </g>
</svg>
