<svg xmlns="http://www.w3.org/2000/svg" width="48" height="48" viewBox="0 0 48 48">
    <g fill="none" transform="translate(1 1)">
        <circle cx="32" cy="16" r="6" fill="#EFD358"/>
        <circle cx="18" cy="6" r="6" fill="#EFD358"/>
        <path fill="#B29930" d="M20 7h-4c-.553 0-1-.447-1-1 0-.553.447-1 1-1h4c.553 0 1 .447 1 1 0 .553-.447 1-1 1zM34 17h-4c-.553 0-1-.447-1-1 0-.553.447-1 1-1h4c.553 0 1 .447 1 1 0 .553-.447 1-1 1z"/>
        <path fill="#EAD8C5" d="M43.012 34.26l-17.52 1.523c-1.623.141-3.25-.216-4.663-1.024L16 32h11.268C28.777 32 30 30.777 30 29.268c0-1.315-.936-2.444-2.229-2.686l-10.117-1.897c-2.43-.456-4.899-.685-7.372-.685H2v14.479l16.45 6.857c1.82.683 3.834.673 5.688.206L46 37c0-1.613-1.382-2.88-2.988-2.74z"/>
        <path fill="#5A7A84" d="M6 43H1c-.552 0-1-.448-1-1V23c0-.552.448-1 1-1h5c.552 0 1 .448 1 1v19c0 .552-.448 1-1 1z"/>
    </g>
</svg>
