<svg xmlns="http://www.w3.org/2000/svg" width="48" height="48" viewBox="0 0 48 48">
    <g fill="none">
        <path fill="#E6E6E6" d="M23 4c-6 4-14 6-20 6 0 14 6 28 20 34 14-6 20-20 20-34-6 0-14-2-20-6z" transform="translate(1)"/>
        <path fill="#E86C60" d="M5.193 24C8.043 32.612 13.775 40.047 23 44V24H5.193zM40.807 24C42.282 19.542 43 14.775 43 10c-6 0-14-2-20-6v20h17.807z" transform="translate(1)"/>
        <path fill="#444" d="M45 7h-2c-6.131 0-13.328-2.157-18.336-5.496l-1.109-.74c-.336-.224-.773-.224-1.109 0l-1.109.74C16.328 4.843 9.131 7 3 7H1c-.552 0-1 .448-1 1v2c0 17.161 8.156 30.902 21.818 36.757l.788.338c.125.054.26.081.394.081s.269-.027.394-.081l.788-.338C37.844 40.902 46 27.161 46 10V8c0-.552-.448-1-1-1zM23 42.908C11.349 37.72 4.307 25.864 4.01 10.984c6.488-.207 13.615-2.377 18.99-5.791 5.375 3.414 12.502 5.584 18.99 5.791-.297 14.88-7.339 26.737-18.99 31.924z" transform="translate(1)"/>
    </g>
</svg>
