<svg xmlns="http://www.w3.org/2000/svg" width="48" height="48" viewBox="0 0 48 48">
    <g fill="none">
        <path fill="#E6E6E6" d="M37 0H1C.448 0 0 .448 0 1v42c0 .369.203.708.528.882.324.173.718.154 1.026-.05L7 40.202l5.446 3.63c.336.224.773.224 1.109 0L19 40.202l5.446 3.63c.336.224.773.224 1.109 0L31 40.202l5.446 3.63c.167.112.36.168.554.168.162 0 .324-.039.472-.118.325-.174.528-.513.528-.882V1c0-.552-.448-1-1-1z" transform="translate(5 2)"/>
        <path fill="#B3B3B3" d="M22 14H9c-.552 0-1-.448-1-1s.448-1 1-1h13c.552 0 1 .448 1 1s-.448 1-1 1zM29 14h-2c-.552 0-1-.448-1-1s.448-1 1-1h2c.552 0 1 .448 1 1s-.448 1-1 1zM22 22H9c-.552 0-1-.448-1-1s.448-1 1-1h13c.552 0 1 .448 1 1s-.448 1-1 1zM29 22h-2c-.552 0-1-.448-1-1s.448-1 1-1h2c.552 0 1 .448 1 1s-.448 1-1 1zM22 30H9c-.552 0-1-.448-1-1s.448-1 1-1h13c.552 0 1 .448 1 1s-.448 1-1 1zM29 30h-2c-.552 0-1-.448-1-1s.448-1 1-1h2c.552 0 1 .448 1 1s-.448 1-1 1z" transform="translate(5 2)"/>
    </g>
</svg>
