<svg xmlns="http://www.w3.org/2000/svg" width="75" height="14" viewBox="0 0 75 14">
    <path fill="#19C365" fill-rule="evenodd" d="M2.84 13.34V7.8H9.3V5.3H2.84V2.5h6.6V0H0v13.34h2.84zm17.48 0V3.68h-2.54v6.54c-.44.56-1.22 1.1-2.2 1.1-1.08 0-1.78-.44-1.78-1.78V3.68h-2.54v6.86c0 1.88 1 3.04 3.12 3.04 1.58 0 2.74-.74 3.4-1.46v1.22h2.54zm7.66 0l3.88-9.66h-2.72L26.6 10.4l-2.52-6.72h-2.72l3.88 9.66h2.74zm13.28 0V7.1c0-2.78-2.02-3.66-4.24-3.66-1.52 0-3.04.46-4.22 1.52l1 1.78c.8-.74 1.76-1.14 2.78-1.14 1.28 0 2.12.64 2.12 1.62v1.22c-.64-.76-1.76-1.18-3.06-1.18-1.54 0-3.34.84-3.34 3.12 0 2.16 1.8 3.2 3.34 3.2 1.26 0 2.4-.46 3.06-1.26v1.02h2.56zm-4.6-1.48c-1 0-1.82-.52-1.82-1.44 0-.92.82-1.46 1.82-1.46.82 0 1.62.3 2.04.86v1.2c-.42.56-1.22.84-2.04.84zm9.54 1.48V6.96c.42-.62 1.54-1.1 2.38-1.1.3 0 .52.02.7.06V3.44c-1.2 0-2.38.7-3.08 1.54v-1.3h-2.54v9.66h2.54zm4.12.22c.88 0 1.62-.74 1.62-1.62 0-.88-.74-1.62-1.62-1.62-.88 0-1.62.74-1.62 1.62 0 .88.74 1.62 1.62 1.62zm12.82-.22V6.48c0-1.88-1.02-3.04-3.14-3.04-1.58 0-2.76.76-3.38 1.48V0h-2.56v13.34h2.56V6.82c.42-.56 1.2-1.12 2.2-1.12 1.08 0 1.78.42 1.78 1.76v5.88h2.54zm11.48 0h-2.54v-1.22c-.66.72-1.82 1.46-3.4 1.46-2.12 0-3.12-1.16-3.12-3.04V3.68h2.54v5.86c0 1.34.7 1.78 1.78 1.78.98 0 1.76-.54 2.2-1.1V3.68h2.54v9.66z"/>
</svg>
