<svg xmlns="http://www.w3.org/2000/svg" width="16" height="16" viewBox="0 0 16 16">
    <path fill="#19C365" fill-rule="evenodd" d="M12.588 6.882h-.424c.263-.451.424-.97.424-1.53 0-1.688-1.37-3.058-3.059-3.058-.013 0-.025.004-.038.004C9.306 1 8.201 0 6.853 0 5.375 0 4.176 1.198 4.176 2.676c0 .26.049.506.118.743-.975.512-1.647 1.521-1.647 2.699 0 .29.054.566.13.832C1.391 7.243.352 8.47.352 9.941c0 1.69 1.37 3.059 3.059 3.059H7v3h2v-3h3.588c1.69 0 3.059-1.37 3.059-3.059 0-1.69-1.37-3.059-3.059-3.059z"/>
</svg>
